<?xml version="1.0" standalone="no"?>
<!DOCTYPE svg PUBLIC "-//W3C//DTD SVG 20010904//EN"
 "http://www.w3.org/TR/2001/REC-SVG-20010904/DTD/svg10.dtd">
<svg version="1.0" xmlns="http://www.w3.org/2000/svg"
 width="581.000000pt" height="581.000000pt" viewBox="0 0 581.000000 581.000000"
 preserveAspectRatio="xMidYMid meet">
<metadata>
Created by potrace 1.11, written by Peter Selinger 2001-2013
</metadata>
<g transform="translate(0.000000,581.000000) scale(0.100000,-0.100000)"
fill="#000000" stroke="none">
<path d="M2872 5503 c-7 -3 -29 -30 -48 -61 -134 -211 -472 -390 -899 -477
-38 -8 -81 -17 -94 -19 -14 -3 -45 -8 -70 -11 -25 -3 -55 -7 -66 -9 -11 -2
-45 -6 -75 -9 -182 -19 -271 -25 -454 -28 -97 -2 -111 -5 -135 -25 l-26 -22 0
-1121 0 -1121 -257 0 -256 0 4 -38 3 -37 -219 0 c-121 0 -220 -3 -220 -8 0 -4
14 -31 30 -60 17 -30 27 -57 23 -62 -5 -4 -2 -5 5 -1 6 4 12 2 12 -3 0 -18 3
-25 19 -43 9 -9 27 -38 41 -65 14 -26 27 -50 30 -53 3 -3 12 -18 20 -35 8 -16
23 -39 32 -49 10 -11 18 -24 18 -29 0 -5 9 -22 21 -38 12 -17 19 -38 16 -48
-2 -10 -64 -120 -137 -244 -73 -124 -132 -229 -131 -233 0 -4 26 -8 56 -8 56
0 63 -4 44 -23 -8 -8 -7 -13 2 -18 7 -5 10 -4 6 1 -3 5 0 16 6 25 15 19 101
20 103 2 1 -7 2 -19 3 -25 1 -7 10 1 21 17 11 17 20 23 20 15 0 -13 2 -13 9
-1 8 12 12 12 25 2 9 -7 13 -17 10 -22 -11 -18 -13 -49 -3 -43 6 3 8 8 5 11
-3 3 2 18 10 32 13 22 21 26 50 23 21 -3 34 -10 34 -18 0 -11 -4 -12 -19 -4
-11 5 -23 10 -28 10 -4 -1 3 -7 17 -14 29 -16 40 -12 40 14 0 15 6 17 41 14
23 -2 45 -7 50 -10 5 -3 9 -1 9 4 0 5 20 8 44 8 30 -1 42 -5 39 -13 -3 -7 0
-13 7 -13 6 0 8 -5 3 -12 -12 -21 -14 -48 -2 -48 5 0 7 4 4 10 -3 5 0 10 8 10
8 0 17 -7 21 -15 3 -8 11 -15 18 -15 10 0 10 2 -1 9 -8 5 -9 11 -3 15 6 3 13
2 17 -3 3 -6 12 -8 20 -4 10 3 13 1 10 -9 -3 -8 2 -21 12 -29 16 -13 17 -12 5
2 -13 17 -6 53 9 43 18 -11 49 -12 49 -2 0 7 6 6 15 -2 12 -10 15 -10 15 1 0
11 2 11 9 0 8 -12 12 -12 24 -2 10 7 17 8 21 2 6 -9 13 -9 51 -1 6 1 13 1 18
0 18 -6 32 -5 38 3 3 5 9 1 12 -8 5 -10 3 -14 -5 -9 -6 4 -8 3 -5 -3 4 -6 0
-13 -8 -16 -10 -4 -12 -1 -9 11 5 14 4 15 -5 2 -9 -12 -11 -13 -11 -1 0 8 -2
12 -5 9 -3 -3 -3 -12 1 -21 6 -16 44 -20 44 -4 0 4 4 6 9 2 6 -3 8 3 6 15 -2
11 1 23 7 26 7 4 8 2 4 -4 -4 -7 -2 -12 3 -12 6 0 10 -3 10 -8 -4 -21 3 -31
21 -29 22 1 24 5 10 27 -8 13 -10 12 -10 -3 0 -10 -4 -16 -9 -13 -8 5 -8 14
-2 45 1 2 7 -1 14 -7 15 -13 27 -13 51 0 14 8 17 7 10 -4 -12 -19 -14 -39 -3
-32 5 3 6 10 3 16 -5 8 -1 9 10 5 9 -4 14 -3 11 2 -3 5 -1 12 5 16 5 3 10 2
10 -3 0 -5 7 -9 15 -9 8 0 15 5 15 11 0 6 4 5 9 -3 7 -10 13 -11 31 -1 13 7
20 8 16 2 -4 -6 2 -10 14 -9 11 1 20 6 20 11 0 5 13 -3 30 -19 17 -16 30 -34
30 -41 0 -6 9 -14 20 -17 11 -3 20 -13 20 -22 0 -9 4 -13 10 -10 5 3 10 -1 10
-9 0 -9 7 -16 15 -16 17 0 34 -29 28 -50 -3 -11 -2 -12 4 -3 11 15 148 -111
138 -127 -3 -5 0 -7 9 -4 15 6 72 -43 95 -81 12 -19 12 -19 6 -1 -6 19 -5 19
14 2 11 -10 18 -23 14 -29 -3 -6 -1 -7 5 -3 6 3 15 -1 20 -10 5 -9 11 -14 13
-13 7 6 49 -27 44 -34 -3 -4 -2 -5 1 -2 11 7 45 -15 39 -26 -4 -5 -3 -8 2 -7
11 3 73 -34 73 -44 0 -4 7 -8 16 -8 8 0 13 -4 10 -8 -2 -4 9 -14 25 -21 16 -7
27 -16 24 -21 -3 -4 3 -7 13 -6 9 0 16 -5 15 -11 -2 -7 0 -12 5 -11 18 5 53
-15 48 -27 -3 -8 0 -12 7 -9 16 6 123 -60 120 -74 -2 -6 3 -9 10 -6 14 5 163
-80 185 -106 8 -8 10 -9 7 -2 -6 11 -3 11 14 0 12 -7 21 -16 21 -21 0 -4 5 -5
10 -2 6 3 10 1 10 -5 0 -6 5 -8 10 -5 6 3 10 2 10 -4 0 -5 10 -11 23 -13 14
-2 21 -9 21 -21 -1 -12 2 -15 10 -9 14 11 100 -30 89 -43 -5 -4 -1 -6 7 -3 19
6 94 -34 89 -47 -2 -5 -8 -9 -12 -7 -5 1 -5 -2 -2 -8 5 -8 13 -6 25 5 22 20
44 11 35 -14 -5 -12 -3 -13 6 -4 9 9 21 7 53 -7 24 -10 57 -16 74 -14 35 4 40
-3 15 -21 -13 -9 -13 -14 -3 -20 9 -5 11 -4 6 3 -4 7 -2 12 3 12 18 0 26 -5
23 -13 -1 -5 2 -6 8 -2 6 4 4 15 -6 30 -14 22 -14 24 4 34 19 10 32 6 32 -11
0 -4 -5 -8 -11 -8 -5 0 -7 5 -3 12 4 7 3 8 -4 4 -15 -9 -4 -35 22 -47 20 -9
20 -9 3 4 -12 10 -15 17 -7 22 6 4 9 13 6 21 -3 9 2 18 12 21 9 4 20 10 23 15
3 5 15 10 27 11 12 0 24 7 26 14 6 16 26 17 26 2 0 -5 -5 -7 -10 -4 -6 4 -9 1
-8 -7 2 -7 -5 -12 -14 -12 -10 1 -15 -3 -11 -9 4 -6 0 -8 -11 -4 -10 4 -19 1
-22 -8 -4 -8 -10 -12 -15 -9 -5 3 -9 0 -9 -6 0 -7 7 -9 16 -6 8 3 24 2 33 -4
23 -12 35 -1 20 17 -7 8 -8 13 -1 13 5 0 17 -10 27 -23 16 -21 16 -21 1 5 -14
23 -14 28 -2 35 8 4 16 15 18 23 5 22 34 41 53 34 10 -4 15 -2 13 7 -2 8 5 14
15 14 10 0 21 5 25 11 8 12 69 46 76 42 2 -2 12 4 22 13 31 26 42 30 50 18 4
-7 3 -9 -4 -6 -6 5 -8 0 -5 -12 5 -21 53 -70 53 -55 0 5 -9 15 -20 22 -34 21
-17 84 25 92 6 1 18 8 27 17 15 13 17 13 27 -5 5 -10 8 -30 5 -43 -2 -13 -1
-17 3 -9 3 8 21 30 38 49 28 29 35 32 53 22 12 -7 23 -8 23 -4 1 4 2 14 3 22
0 8 7 16 15 19 9 3 11 0 6 -8 -6 -9 -4 -11 4 -5 7 4 9 11 4 16 -12 12 -65 20
-58 8 4 -5 11 -6 17 -3 8 5 9 1 5 -10 -4 -10 -7 -20 -7 -22 0 -2 -4 -4 -10 -4
-5 0 -9 3 -9 7 3 21 -2 33 -12 27 -8 -4 -7 -9 2 -16 10 -6 6 -8 -11 -4 -14 3
-20 3 -13 0 8 -4 7 -10 -4 -24 -9 -10 -21 -16 -26 -13 -6 3 -7 1 -3 -5 4 -7 3
-12 -2 -12 -11 0 -23 36 -14 44 3 3 12 0 20 -7 10 -7 13 -8 9 -1 -7 12 52 64
71 64 5 0 15 7 22 15 7 9 15 13 18 11 3 -3 17 3 32 14 16 11 33 20 40 20 6 0
8 5 4 12 -4 7 -3 8 5 4 15 -10 -28 -54 -46 -48 -19 6 -16 -5 3 -12 10 -4 26 6
45 26 22 25 31 30 41 20 9 -9 9 -12 -1 -12 -7 0 -25 -13 -41 -29 -20 -22 -23
-31 -14 -35 8 -3 13 0 11 7 -1 7 7 11 18 10 11 -1 15 0 8 3 -15 7 -5 34 12 34
6 0 20 9 30 20 11 12 13 20 6 20 -7 0 -9 5 -6 10 4 6 11 8 16 4 5 -3 21 1 34
10 32 21 42 20 22 -2 -12 -13 -13 -21 -6 -32 9 -13 10 -12 5 2 -3 10 2 21 12
27 15 9 15 11 -3 31 -19 21 -14 51 10 52 6 0 16 9 23 19 8 11 19 16 29 12 10
-4 14 -2 10 4 -4 6 0 17 9 24 14 11 18 10 29 -4 9 -13 14 -14 17 -6 3 9 6 7
11 -4 4 -11 1 -17 -8 -17 -18 0 -20 -16 -3 -26 6 -4 8 -3 5 3 -4 6 0 14 8 17
12 4 13 10 6 25 -8 15 -7 20 5 25 8 3 12 10 9 16 -3 5 -1 10 4 10 14 0 14 -23
0 -37 -8 -8 -7 -13 2 -18 7 -5 10 -4 5 3 -3 6 1 15 10 20 9 5 15 13 14 18 -1
5 3 10 9 12 6 2 8 -3 5 -11 -3 -8 0 -18 7 -23 8 -5 10 -3 5 5 -5 7 0 21 9 31
14 15 22 17 39 9 20 -10 20 -9 2 5 -18 14 -18 17 -2 41 14 21 20 24 37 14 16
-8 24 -8 33 2 8 9 8 10 -2 5 -7 -4 -24 0 -39 9 -14 9 -23 13 -19 7 3 -5 -2
-16 -11 -23 -15 -12 -16 -12 -10 3 4 12 2 15 -8 12 -8 -3 -13 -11 -12 -17 1
-7 -4 -11 -11 -9 -8 1 -11 -2 -6 -9 4 -8 3 -9 -4 -5 -8 5 -10 1 -6 -11 5 -15
4 -16 -5 -3 -10 13 -11 12 -9 -4 2 -10 -2 -21 -8 -23 -6 -2 -11 4 -11 14 0 19
43 59 88 83 15 8 29 20 30 25 1 6 15 19 30 31 16 11 26 24 22 28 -4 4 0 4 10
0 11 -4 17 -1 17 9 0 8 7 21 17 28 15 13 15 12 5 -8 -16 -29 -15 -30 8 -43 14
-7 20 -7 20 0 0 5 -7 10 -15 10 -8 0 -15 5 -15 11 0 5 4 8 9 5 5 -3 14 1 21 9
7 8 16 12 21 9 8 -5 13 10 10 29 -2 11 32 4 42 -8 5 -6 7 -4 4 5 -2 8 -10 14
-16 13 -6 -2 -11 4 -11 13 0 8 5 12 10 9 6 -3 10 -1 10 4 0 6 -3 11 -7 11 -13
0 -35 -17 -35 -26 0 -5 -4 -8 -9 -7 -5 2 -10 -2 -10 -7 -1 -6 -2 -14 -3 -19
-2 -20 -16 -23 -16 -5 0 22 48 74 69 74 7 0 10 4 7 9 -8 13 29 42 46 36 21 -8
19 -37 -2 -30 -10 3 -22 -1 -29 -8 -9 -12 -4 -14 26 -12 20 0 39 7 41 13 2 7
-1 12 -8 12 -7 0 -7 5 2 14 7 8 16 12 20 10 3 -2 13 2 21 10 18 18 31 8 16
-11 -6 -7 -8 -13 -4 -13 4 0 1 -8 -6 -17 -13 -16 -12 -17 3 -4 10 7 16 17 13
21 -3 5 -1 11 5 15 6 4 8 10 5 15 -3 5 -1 11 5 15 5 3 10 0 10 -7 1 -7 6 -3
13 10 7 12 16 19 20 16 4 -4 7 -2 7 4 0 6 -9 10 -19 9 -12 -1 -17 -7 -14 -17
4 -12 3 -12 -5 -1 -8 11 -10 11 -15 0 -4 -11 -6 -11 -6 1 -1 10 -6 7 -17 -9
-15 -20 -18 -21 -26 -8 -5 9 -15 14 -23 11 -8 -4 -12 -10 -9 -15 3 -5 9 -7 14
-4 5 3 12 0 16 -7 4 -7 4 -10 -1 -6 -4 4 -14 3 -20 -2 -9 -7 -16 -6 -24 4 -10
11 -8 17 8 28 12 8 19 18 16 21 -3 4 0 3 7 -3 8 -6 18 0 35 22 21 30 29 26 23
-11 -1 -12 1 -13 14 -2 8 7 12 20 10 29 -5 14 -3 14 6 -1 9 -14 22 -18 53 -15
26 1 42 -2 45 -10 3 -10 8 -8 17 5 11 15 16 16 41 4 16 -7 26 -9 22 -5 -5 4 1
14 12 21 18 12 24 13 37 1 10 -8 14 -8 10 -1 -4 6 -3 14 3 18 5 3 10 1 10 -5
0 -7 6 -8 18 -1 14 7 21 5 31 -11 7 -11 10 -22 7 -25 -3 -3 -8 2 -12 11 -3 9
-11 16 -17 16 -5 0 -2 -9 7 -19 17 -18 17 -20 -1 -30 -10 -6 -13 -11 -7 -11 6
0 17 7 24 15 7 9 15 13 18 11 7 -8 42 13 42 25 0 6 -7 3 -16 -6 -9 -9 -17 -15
-19 -13 -1 2 -8 14 -15 28 l-13 25 23 -20 c13 -11 20 -15 17 -8 -9 15 9 27 18
13 5 -8 11 -8 20 0 8 7 15 7 19 1 7 -10 24 -10 43 2 6 4 14 3 18 -2 5 -10 36
-8 54 4 5 3 12 1 16 -5 3 -5 11 -10 16 -10 6 0 8 4 4 9 -3 6 5 8 19 5 22 -4
24 -1 20 23 -3 15 -4 25 -2 23 2 -3 12 -16 23 -29 11 -14 14 -21 6 -16 -10 6
-12 4 -6 -5 6 -9 4 -11 -5 -5 -9 5 -11 4 -6 -3 5 -8 1 -10 -10 -5 -14 5 -16 3
-11 -11 4 -10 7 -20 7 -22 0 -3 11 7 24 23 18 21 22 32 15 45 -5 10 -6 18 -2
18 4 0 2 4 -5 9 -11 7 -10 9 3 14 9 4 13 3 10 -3 -3 -6 -2 -10 4 -10 5 0 11 5
13 12 3 8 28 12 70 12 48 1 64 -2 61 -11 -3 -7 -10 -10 -16 -6 -5 3 -7 1 -4
-4 4 -6 0 -13 -8 -17 -8 -3 -17 -1 -20 4 -4 6 -1 10 5 10 6 0 8 5 5 10 -3 6
-11 10 -16 10 -6 0 -8 -4 -4 -9 3 -6 -4 -8 -15 -6 -13 2 -24 -4 -31 -16 -16
-30 -1 -38 20 -11 15 20 19 21 29 9 7 -7 10 -16 7 -19 -3 -2 2 -5 10 -5 8 0
13 2 11 4 -2 2 8 16 23 31 17 18 34 26 48 23 13 -2 20 -7 17 -12 -3 -5 0 -9 5
-9 6 0 11 7 11 15 0 10 7 14 23 11 12 -3 37 -5 55 -5 22 -1 32 -6 32 -16 0
-12 -4 -13 -19 -5 -11 5 -23 10 -28 10 -4 -1 3 -7 17 -14 28 -16 40 -12 40 12
0 15 10 17 73 15 52 -1 72 -5 72 -15 0 -7 -9 -13 -19 -13 -10 0 -20 -8 -22
-17 -1 -10 3 -16 9 -15 7 1 11 -4 9 -11 -1 -8 2 -11 8 -7 8 5 5 14 -7 27 -14
16 -15 20 -3 18 30 -5 40 0 40 19 0 15 7 18 40 16 22 -1 47 -8 57 -16 17 -13
17 -12 2 6 -23 28 -51 85 -42 85 4 0 -3 7 -15 16 -12 8 -22 20 -22 26 0 6 3 8
7 5 7 -8 33 11 33 24 0 5 -4 9 -10 9 -5 0 -9 -3 -9 -7 3 -20 -3 -23 -22 -12
-17 9 -19 13 -8 20 11 7 10 9 -3 9 -10 0 -19 5 -19 10 -1 6 -2 14 -3 18 0 5
-9 16 -18 26 -17 16 -22 30 -19 49 0 4 -4 7 -10 7 -5 0 -7 4 -4 10 3 5 -2 10
-11 10 -14 0 -15 3 -6 12 7 7 12 17 12 23 0 5 -4 4 -9 -4 -7 -11 -11 -10 -20
7 -9 17 -8 23 6 32 16 9 15 10 -4 5 -17 -5 -23 -2 -23 9 0 9 -4 16 -8 16 -5 0
-16 17 -26 38 -10 20 -12 32 -6 25 14 -13 43 -6 34 8 -3 5 2 9 10 9 9 0 16 5
16 10 0 7 -6 7 -20 0 -11 -6 -20 -15 -20 -21 0 -5 -11 -2 -24 7 -15 9 -22 21
-19 30 6 16 43 19 43 3 0 -6 -7 -9 -15 -6 -8 4 -17 2 -20 -3 -6 -9 36 -7 53 4
6 4 9 13 5 21 -3 9 1 15 10 15 23 0 31 18 16 36 -16 20 5 60 46 87 17 10 23
17 13 14 -24 -8 -30 4 -10 19 14 10 15 15 4 26 -11 11 -12 10 -7 -4 4 -10 3
-18 -3 -18 -20 0 -20 15 -1 39 15 18 23 21 31 13 9 -9 7 -12 -7 -12 -18 -1
-18 -2 -3 -11 11 -6 15 -16 11 -27 -7 -18 -5 -17 17 12 8 11 10 17 3 13 -8 -5
-11 0 -10 13 1 12 8 20 19 20 9 0 20 5 24 11 4 8 -1 9 -17 4 -23 -7 -23 -6 5
24 27 28 30 29 43 13 11 -15 12 -13 1 11 -9 23 -13 25 -20 12 -5 -8 -14 -15
-20 -15 -9 0 -9 3 0 12 7 7 12 17 12 22 0 6 -7 2 -15 -8 -8 -10 -12 -23 -9
-28 7 -10 -31 -60 -40 -51 -10 10 -7 25 4 18 6 -3 11 0 12 7 0 7 2 18 2 23 2
18 31 50 56 63 24 12 24 12 1 6 -17 -4 -22 -2 -18 7 2 8 10 13 17 11 7 -2 10
3 7 12 -3 8 1 22 8 33 8 10 15 23 15 28 0 7 -70 10 -200 10 -128 0 -200 4
-200 10 0 7 -3 7 -8 0 -6 -9 -13 -10 -48 -6 -12 1 -15 31 -3 31 4 0 5 9 2 20
-5 19 -14 20 -212 21 -113 1 -212 1 -219 0 -8 -1 -21 4 -30 11 -12 10 -14 10
-8 1 4 -7 2 -13 -3 -13 -6 0 -11 9 -11 21 0 16 5 19 23 15 12 -3 16 -3 10 0
-18 8 -16 25 1 18 8 -3 17 -1 21 5 4 7 0 8 -11 4 -13 -5 -15 -3 -9 8 5 9 1 8
-11 -3 -20 -17 -20 -16 -21 110 -1 82 3 132 10 141 8 9 8 12 1 8 -7 -4 -11 23
-11 88 -1 75 2 92 13 88 18 -7 28 21 16 42 -8 16 -9 16 -15 1 -4 -10 -3 -15 3
-11 6 3 10 -1 10 -9 0 -9 -6 -13 -15 -10 -17 7 -18 101 -1 123 8 11 8 13 0 8
-15 -9 -16 293 0 312 7 10 7 12 0 8 -7 -4 -11 23 -11 88 -1 75 2 92 13 88 18
-7 28 21 16 42 -8 16 -9 16 -15 1 -4 -10 -3 -15 3 -11 6 3 10 -1 10 -9 0 -9
-6 -13 -15 -10 -17 7 -18 101 -1 123 8 11 8 13 0 8 -15 -9 -16 293 0 312 7 10
7 12 0 8 -7 -4 -11 23 -11 88 -1 75 2 92 13 88 18 -7 28 21 16 42 -8 16 -9 16
-15 1 -4 -10 -3 -15 3 -11 6 3 10 -1 10 -9 0 -9 -6 -13 -14 -10 -10 4 -13 41
-13 172 -1 266 -1 267 -23 292 -23 26 -11 25 -295 35 -98 3 -182 8 -185 9 -3
2 -41 7 -85 11 -103 8 -108 9 -245 34 -103 19 -136 25 -218 45 -12 3 -62 17
-110 32 -48 15 -93 28 -100 30 -6 1 -31 11 -55 22 -23 11 -57 25 -74 32 -18 7
-30 17 -26 23 3 6 1 7 -5 3 -14 -9 -134 53 -126 65 3 5 -1 7 -8 4 -16 -6 -133
80 -133 98 0 6 -6 13 -12 13 -7 1 -18 2 -24 3 -6 0 -9 8 -6 15 4 11 1 13 -11
9 -9 -3 -14 -3 -10 1 3 4 -6 20 -21 34 -16 15 -40 46 -54 69 -36 56 -71 74
-115 56z m2735 -3283 c1 -11 -8 -27 -20 -35 -12 -8 -22 -19 -22 -23 0 -4 -3
-6 -7 -4 -11 3 -10 -6 7 -37 13 -27 13 -29 -7 -34 -13 -4 -19 -11 -15 -21 5
-13 3 -14 -13 -3 -22 13 -25 23 -10 32 6 4 8 11 5 16 -4 5 1 12 9 15 9 3 13
10 10 15 -3 5 6 24 20 42 15 19 26 39 26 45 0 21 16 13 17 -8z m-5316 -693
c-10 -9 -11 -8 -5 6 3 10 9 15 12 12 3 -3 0 -11 -7 -18z m4296 -61 c0 -15 -21
-16 -34 -1 -4 4 -2 5 5 1 6 -4 12 -2 12 3 0 6 4 11 8 11 5 0 9 -6 9 -14z m63
2 c0 -5 4 -7 9 -3 15 9 71 13 71 5 0 -12 -28 -20 -45 -14 -8 4 -22 1 -29 -6
-12 -9 -17 -7 -25 8 -8 14 -7 19 5 19 7 0 14 -4 14 -9z m-160 -2 c0 -2 -8 -10
-17 -17 -16 -13 -17 -12 -4 4 13 16 21 21 21 13z m-374 -422 c-10 -14 -20 -23
-23 -20 -3 3 2 17 11 32 10 14 20 23 23 20 3 -3 -2 -17 -11 -32z m-79 -15 c-9
-6 -15 -14 -13 -18 3 -4 -4 -12 -15 -19 -16 -10 -19 -9 -19 4 0 8 5 12 10 9 6
-3 10 0 10 9 0 14 14 24 35 25 6 0 2 -4 -8 -10z m-177 -161 c0 -13 -42 -31
-49 -21 -3 5 -14 1 -23 -9 -10 -10 -13 -18 -8 -18 6 0 10 -5 10 -11 0 -8 -4
-8 -15 1 -8 6 -19 9 -25 5 -5 -3 -10 -1 -10 4 0 6 7 11 16 11 9 0 12 5 8 12
-4 6 -3 8 4 4 5 -3 12 -2 14 3 1 5 10 11 18 13 8 2 21 11 29 22 11 14 15 15
22 5 5 -8 9 -17 9 -21z m-760 -474 c0 -2 -9 0 -20 6 -11 6 -20 13 -20 16 0 2
9 0 20 -6 11 -6 20 -13 20 -16z"/>
<path d="M5538 2113 c10 -4 9 -9 -5 -20 -17 -13 -16 -13 5 -3 22 11 22 31 -1
29 -8 0 -8 -2 1 -6z"/>
<path d="M3050 5391 c0 -6 4 -13 10 -16 6 -3 7 1 4 9 -7 18 -14 21 -14 7z"/>
<path d="M4821 4764 c0 -11 3 -14 6 -6 3 7 2 16 -1 19 -3 4 -6 -2 -5 -13z"/>
<path d="M4833 4737 c-8 -17 -8 -24 0 -24 7 0 13 11 13 24 2 29 0 29 -13 0z"/>
<path d="M4830 4688 c0 -11 12 -10 30 2 12 7 10 9 -8 7 -12 0 -22 -5 -22 -9z"/>
<path d="M4854 4668 c-4 -6 -3 -8 4 -4 5 3 12 1 14 -6 3 -8 6 -9 11 -1 4 6 0
13 -8 17 -8 3 -17 0 -21 -6z"/>
<path d="M4827 4651 c-4 -17 -3 -21 5 -13 5 5 8 16 6 23 -3 8 -7 3 -11 -10z"/>
<path d="M4850 4641 c0 -6 4 -13 10 -16 6 -3 7 1 4 9 -7 18 -14 21 -14 7z"/>
<path d="M4830 4605 c0 -8 4 -15 8 -15 5 0 9 7 9 15 0 8 -4 15 -9 15 -4 0 -8
-7 -8 -15z"/>
<path d="M4873 4595 c0 -8 4 -12 9 -9 5 3 6 10 3 15 -9 13 -12 11 -12 -6z"/>
<path d="M4826 4568 c3 -4 11 -5 19 -1 21 7 19 12 -4 10 -11 0 -18 -5 -15 -9z"/>
<path d="M4873 4553 c4 -3 1 -13 -6 -22 -11 -14 -10 -14 5 -2 16 12 16 31 1
31 -4 0 -3 -3 0 -7z"/>
<path d="M4823 4535 c0 -8 4 -12 9 -9 5 3 6 10 3 15 -9 13 -12 11 -12 -6z"/>
<path d="M4832 4508 c-9 -12 -8 -14 8 -13 11 1 23 5 27 10 5 4 3 5 -4 2 -6 -4
-13 -2 -15 4 -2 7 -8 6 -16 -3z"/>
<path d="M4873 4475 c0 -8 4 -12 9 -9 5 3 6 10 3 15 -9 13 -12 11 -12 -6z"/>
<path d="M4820 4470 c0 -5 7 -7 15 -4 8 4 15 8 15 10 0 2 -7 4 -15 4 -8 0 -15
-4 -15 -10z"/>
<path d="M4850 4440 c6 -11 12 -20 14 -20 2 0 2 9 -1 20 -3 11 -9 20 -15 20
-5 0 -4 -9 2 -20z"/>
<path d="M4840 4370 c-8 -5 -16 -22 -17 -37 -2 -20 0 -24 7 -13 5 8 6 18 3 23
-3 4 3 15 13 22 21 16 17 20 -6 5z"/>
<path d="M4855 4349 c-3 -4 2 -6 10 -5 21 3 28 13 10 13 -9 0 -18 -4 -20 -8z"/>
<path d="M4850 4321 c0 -6 4 -13 10 -16 6 -3 7 1 4 9 -7 18 -14 21 -14 7z"/>
<path d="M4825 4290 c-3 -6 1 -7 9 -4 18 7 21 14 7 14 -6 0 -13 -4 -16 -10z"/>
<path d="M4832 4267 c-8 -10 -6 -13 8 -14 11 -1 22 2 25 8 4 5 -2 6 -11 2 -12
-4 -15 -3 -10 5 10 16 1 15 -12 -1z"/>
<path d="M4820 4229 c0 -5 5 -7 10 -4 6 3 10 8 10 11 0 2 -4 4 -10 4 -5 0 -10
-5 -10 -11z"/>
<path d="M4840 4216 c0 -2 7 -7 16 -10 8 -3 12 -2 9 4 -6 10 -25 14 -25 6z"/>
<path d="M4832 4187 c-8 -10 -6 -13 8 -14 11 -1 22 2 25 8 4 5 -2 6 -11 2 -12
-4 -15 -3 -10 5 10 16 1 15 -12 -1z"/>
<path d="M4896 4192 c-3 -5 1 -9 9 -9 8 0 12 4 9 9 -3 4 -7 8 -9 8 -2 0 -6 -4
-9 -8z"/>
<path d="M4873 4155 c0 -8 4 -12 9 -9 5 3 6 10 3 15 -9 13 -12 11 -12 -6z"/>
<path d="M4820 4149 c0 -5 5 -7 10 -4 6 3 10 8 10 11 0 2 -4 4 -10 4 -5 0 -10
-5 -10 -11z"/>
<path d="M4847 4146 c-3 -8 1 -22 9 -33 14 -17 15 -17 6 2 -5 11 -7 26 -5 33
6 17 -4 15 -10 -2z"/>
<path d="M4823 4104 c-1 -19 1 -23 8 -13 7 11 9 11 9 -3 0 -9 -5 -19 -10 -21
-6 -3 -5 -4 2 -3 18 4 21 28 6 49 -12 16 -13 15 -15 -9z"/>
<path d="M4840 4050 c-8 -5 -16 -22 -17 -37 -2 -20 0 -24 7 -13 5 8 6 18 3 23
-3 4 3 15 13 22 21 16 17 20 -6 5z"/>
<path d="M4855 4029 c-3 -4 2 -6 10 -5 21 3 28 13 10 13 -9 0 -18 -4 -20 -8z"/>
<path d="M4850 4001 c0 -6 4 -13 10 -16 6 -3 7 1 4 9 -7 18 -14 21 -14 7z"/>
<path d="M4825 3970 c-3 -6 1 -7 9 -4 18 7 21 14 7 14 -6 0 -13 -4 -16 -10z"/>
<path d="M4832 3947 c-8 -10 -6 -13 8 -14 11 -1 22 2 25 8 4 5 -2 6 -11 2 -12
-4 -15 -3 -10 5 10 16 1 15 -12 -1z"/>
<path d="M4820 3909 c0 -5 5 -7 10 -4 6 3 10 8 10 11 0 2 -4 4 -10 4 -5 0 -10
-5 -10 -11z"/>
<path d="M4840 3896 c0 -2 7 -7 16 -10 8 -3 12 -2 9 4 -6 10 -25 14 -25 6z"/>
<path d="M4832 3868 c-9 -12 -8 -14 8 -13 11 1 23 5 27 10 5 4 3 5 -4 2 -6 -4
-13 -2 -15 4 -2 7 -8 6 -16 -3z"/>
<path d="M4873 3835 c0 -8 4 -12 9 -9 5 3 6 10 3 15 -9 13 -12 11 -12 -6z"/>
<path d="M4820 3830 c0 -5 7 -7 15 -4 8 4 15 8 15 10 0 2 -7 4 -15 4 -8 0 -15
-4 -15 -10z"/>
<path d="M4850 3800 c6 -11 12 -20 14 -20 2 0 2 9 -1 20 -3 11 -9 20 -15 20
-5 0 -4 -9 2 -20z"/>
<path d="M4840 3730 c-8 -5 -16 -22 -17 -37 -2 -20 0 -24 7 -13 5 8 6 18 3 23
-3 4 3 15 13 22 21 16 17 20 -6 5z"/>
<path d="M4855 3709 c-3 -4 2 -6 10 -5 21 3 28 13 10 13 -9 0 -18 -4 -20 -8z"/>
<path d="M4850 3681 c0 -6 4 -13 10 -16 6 -3 7 1 4 9 -7 18 -14 21 -14 7z"/>
<path d="M4825 3650 c-3 -6 1 -7 9 -4 18 7 21 14 7 14 -6 0 -13 -4 -16 -10z"/>
<path d="M4832 3627 c-8 -10 -6 -13 8 -14 11 -1 22 2 25 8 4 5 -2 6 -11 2 -12
-4 -15 -3 -10 5 10 16 1 15 -12 -1z"/>
<path d="M4820 3589 c0 -5 5 -7 10 -4 6 3 10 8 10 11 0 2 -4 4 -10 4 -5 0 -10
-5 -10 -11z"/>
<path d="M4840 3576 c0 -2 7 -7 16 -10 8 -3 12 -2 9 4 -6 10 -25 14 -25 6z"/>
<path d="M4832 3547 c-8 -10 -6 -13 8 -14 11 -1 22 2 25 8 4 5 -2 6 -11 2 -12
-4 -15 -3 -10 5 10 16 1 15 -12 -1z"/>
<path d="M4896 3552 c-3 -5 1 -9 9 -9 8 0 12 4 9 9 -3 4 -7 8 -9 8 -2 0 -6 -4
-9 -8z"/>
<path d="M4873 3515 c0 -8 4 -12 9 -9 5 3 6 10 3 15 -9 13 -12 11 -12 -6z"/>
<path d="M4820 3509 c0 -5 5 -7 10 -4 6 3 10 8 10 11 0 2 -4 4 -10 4 -5 0 -10
-5 -10 -11z"/>
<path d="M4847 3506 c-3 -8 1 -22 9 -33 14 -17 15 -17 6 2 -5 11 -7 26 -5 33
6 17 -4 15 -10 -2z"/>
<path d="M4823 3464 c-1 -19 1 -23 8 -13 7 11 9 11 9 -3 0 -9 -5 -19 -10 -21
-6 -3 -5 -4 2 -3 18 4 21 28 6 49 -12 16 -13 15 -15 -9z"/>
<path d="M4840 3410 c-8 -5 -16 -22 -17 -37 -2 -20 0 -24 7 -13 5 8 6 18 3 23
-3 4 3 15 13 22 21 16 17 20 -6 5z"/>
<path d="M4855 3389 c-3 -4 2 -6 10 -5 21 3 28 13 10 13 -9 0 -18 -4 -20 -8z"/>
<path d="M4850 3361 c0 -6 4 -13 10 -16 6 -3 7 1 4 9 -7 18 -14 21 -14 7z"/>
<path d="M4825 3330 c-3 -6 1 -7 9 -4 18 7 21 14 7 14 -6 0 -13 -4 -16 -10z"/>
<path d="M4832 3307 c-8 -10 -6 -13 8 -14 11 -1 22 2 25 8 4 5 -2 6 -11 2 -12
-4 -15 -3 -10 5 10 16 1 15 -12 -1z"/>
<path d="M4820 3269 c0 -5 5 -7 10 -4 6 3 10 8 10 11 0 2 -4 4 -10 4 -5 0 -10
-5 -10 -11z"/>
<path d="M4840 3256 c0 -2 7 -7 16 -10 8 -3 12 -2 9 4 -6 10 -25 14 -25 6z"/>
<path d="M4832 3228 c-9 -12 -8 -14 8 -13 11 1 23 5 27 10 5 4 3 5 -4 2 -6 -4
-13 -2 -15 4 -2 7 -8 6 -16 -3z"/>
<path d="M4873 3195 c0 -8 4 -12 9 -9 5 3 6 10 3 15 -9 13 -12 11 -12 -6z"/>
<path d="M4820 3190 c0 -5 7 -7 15 -4 8 4 15 8 15 10 0 2 -7 4 -15 4 -8 0 -15
-4 -15 -10z"/>
<path d="M4850 3160 c6 -11 12 -20 14 -20 2 0 2 9 -1 20 -3 11 -9 20 -15 20
-5 0 -4 -9 2 -20z"/>
<path d="M4840 3090 c-8 -5 -16 -22 -17 -37 -2 -20 0 -24 7 -13 5 8 6 18 3 23
-3 4 3 15 13 22 21 16 17 20 -6 5z"/>
<path d="M4855 3069 c-3 -4 2 -6 10 -5 21 3 28 13 10 13 -9 0 -18 -4 -20 -8z"/>
<path d="M4850 3041 c0 -6 4 -13 10 -16 6 -3 7 1 4 9 -7 18 -14 21 -14 7z"/>
<path d="M4825 3010 c-3 -6 1 -7 9 -4 18 7 21 14 7 14 -6 0 -13 -4 -16 -10z"/>
<path d="M4832 2987 c-8 -10 -6 -13 8 -14 11 -1 22 2 25 8 4 5 -2 6 -11 2 -12
-4 -15 -3 -10 5 10 16 1 15 -12 -1z"/>
<path d="M4820 2949 c0 -5 5 -7 10 -4 6 3 10 8 10 11 0 2 -4 4 -10 4 -5 0 -10
-5 -10 -11z"/>
<path d="M4840 2936 c0 -2 7 -7 16 -10 8 -3 12 -2 9 4 -6 10 -25 14 -25 6z"/>
<path d="M4832 2907 c-8 -10 -6 -13 8 -14 11 -1 22 2 25 8 4 5 -2 6 -11 2 -12
-4 -15 -3 -10 5 10 16 1 15 -12 -1z"/>
<path d="M4896 2912 c-3 -5 1 -9 9 -9 8 0 12 4 9 9 -3 4 -7 8 -9 8 -2 0 -6 -4
-9 -8z"/>
<path d="M4873 2875 c0 -8 4 -12 9 -9 5 3 6 10 3 15 -9 13 -12 11 -12 -6z"/>
<path d="M4820 2869 c0 -5 5 -7 10 -4 6 3 10 8 10 11 0 2 -4 4 -10 4 -5 0 -10
-5 -10 -11z"/>
<path d="M4847 2866 c-3 -8 1 -22 9 -33 14 -17 15 -17 6 2 -5 11 -7 26 -5 33
6 17 -4 15 -10 -2z"/>
<path d="M4823 2824 c-1 -19 1 -23 8 -13 7 11 9 11 9 -3 0 -9 -5 -19 -10 -21
-6 -3 -5 -4 2 -3 18 4 21 28 6 49 -12 16 -13 15 -15 -9z"/>
<path d="M4840 2770 c-9 -6 -10 -10 -3 -10 6 0 15 5 18 10 8 12 4 12 -15 0z"/>
<path d="M4854 2748 c-5 -7 -2 -8 6 -3 10 6 12 4 6 -10 -5 -15 -4 -16 9 -5 19
15 19 16 0 23 -8 4 -17 1 -21 -5z"/>
<path d="M4823 2729 c-2 -23 3 -25 10 -4 4 8 3 16 -1 19 -4 3 -9 -4 -9 -15z"/>
<path d="M4825 2690 c-3 -6 1 -7 9 -4 18 7 21 14 7 14 -6 0 -13 -4 -16 -10z"/>
<path d="M4850 2620 c-9 -6 -10 -10 -3 -10 6 0 15 5 18 10 8 12 4 12 -15 0z"/>
<path d="M5715 2330 c3 -5 8 -10 11 -10 2 0 4 5 4 10 0 6 -5 10 -11 10 -5 0
-7 -4 -4 -10z"/>
<path d="M5610 2168 c-20 -21 -26 -36 -20 -42 7 -7 15 -4 25 7 8 9 10 12 3 7
-7 -6 -17 -10 -22 -10 -6 1 0 10 13 20 13 11 20 20 15 20 -4 0 1 7 12 15 10 8
15 15 11 15 -4 0 -21 -14 -37 -32z"/>
<path d="M5651 2177 c-8 -10 -7 -14 2 -14 8 0 14 6 14 14 0 7 -1 13 -2 13 -2
0 -8 -6 -14 -13z"/>
<path d="M5601 2087 c-13 -21 -12 -21 5 -5 10 10 16 20 13 22 -3 3 -11 -5 -18
-17z"/>
<path d="M5590 2049 c0 -5 5 -7 10 -4 6 3 10 8 10 11 0 2 -4 4 -10 4 -5 0 -10
-5 -10 -11z"/>
<path d="M5556 1992 c-6 -11 -2 -39 8 -49 4 -4 6 -1 4 7 -2 8 3 14 10 12 8 -1
11 2 7 8 -3 6 -11 7 -17 4 -7 -5 -9 -1 -5 9 7 18 2 23 -7 9z"/>
<path d="M5674 1746 c1 -8 5 -18 8 -22 4 -3 5 1 4 10 -1 8 -5 18 -8 22 -4 3
-5 -1 -4 -10z"/>
<path d="M5770 1589 c0 -5 5 -7 10 -4 6 3 10 8 10 11 0 2 -4 4 -10 4 -5 0 -10
-5 -10 -11z"/>
<path d="M230 1529 c0 -5 5 -7 10 -4 6 3 10 8 10 11 0 2 -4 4 -10 4 -5 0 -10
-5 -10 -11z"/>
<path d="M340 1525 c0 -8 -6 -12 -14 -9 -8 3 -16 1 -20 -4 -3 -5 5 -8 17 -7
18 1 40 35 23 35 -3 0 -6 -7 -6 -15z"/>
<path d="M485 1519 c-10 -32 -14 -61 -6 -54 3 4 6 14 6 23 0 19 25 23 38 7 6
-6 7 -5 5 3 -2 8 -8 13 -13 12 -5 -1 -12 6 -15 16 -6 15 -8 14 -15 -7z"/>
<path d="M580 1526 c0 -14 -4 -15 -21 -6 -11 7 -23 10 -25 7 -2 -2 7 -9 21
-15 21 -10 27 -9 32 3 3 9 3 19 -1 22 -3 4 -6 -1 -6 -11z"/>
<path d="M605 1530 c-4 -6 -3 -10 2 -9 21 4 34 -2 27 -13 -4 -7 -3 -8 5 -4 9
6 9 11 0 22 -14 17 -25 18 -34 4z"/>
<path d="M5189 1528 c-1 -7 -1 -17 0 -22 1 -5 -5 -6 -13 -3 -10 4 -13 1 -9 -9
9 -25 26 -17 22 12 0 4 5 10 11 14 9 5 9 9 1 14 -6 4 -12 1 -12 -6z"/>
<path d="M5397 1521 c-4 -17 -3 -21 5 -13 5 5 8 16 6 23 -3 8 -7 3 -11 -10z"/>
<path d="M5431 1520 c14 -31 19 -36 19 -24 0 6 -7 19 -16 30 -14 18 -14 18 -3
-6z"/>
<path d="M5531 1528 c-1 -24 11 -28 39 -12 14 7 21 13 15 13 -5 1 -17 -4 -25
-9 -11 -7 -17 -5 -22 8 -6 16 -7 16 -7 0z"/>
<path d="M5690 1522 c9 -19 14 -21 26 -11 8 6 14 17 14 23 0 6 -5 3 -11 -7
-10 -18 -11 -18 -25 0 -14 17 -14 16 -4 -5z"/>
<path d="M5335 1520 c-3 -5 -5 -10 -3 -11 19 -4 51 -9 47 -6 -2 1 -11 8 -21
15 -11 9 -18 10 -23 2z"/>
<path d="M190 1510 c0 -5 5 -10 11 -10 5 0 7 5 4 10 -3 6 -8 10 -11 10 -2 0
-4 -4 -4 -10z"/>
<path d="M255 1495 c0 -13 3 -21 8 -18 4 2 7 10 7 18 0 8 -3 16 -7 18 -5 3 -8
-5 -8 -18z"/>
<path d="M385 1510 c-6 -9 -4 -11 5 -5 9 6 12 4 8 -6 -4 -11 1 -15 17 -15 13
0 21 4 18 9 -3 4 -7 6 -11 3 -3 -3 -10 2 -17 11 -9 13 -14 13 -20 3z"/>
<path d="M5749 1507 c6 -8 7 -18 3 -22 -4 -5 -1 -5 6 -1 10 6 10 11 1 22 -6 8
-14 14 -16 14 -3 0 0 -6 6 -13z"/>
<path d="M5586 1493 c-6 -14 -5 -15 5 -6 7 7 10 15 7 18 -3 3 -9 -2 -12 -12z"/>
<path d="M590 1491 c0 -6 4 -13 10 -16 6 -3 7 1 4 9 -7 18 -14 21 -14 7z"/>
<path d="M5305 1490 c-3 -6 1 -7 9 -4 18 7 21 14 7 14 -6 0 -13 -4 -16 -10z"/>
<path d="M5400 1490 c-12 -7 -10 -9 8 -7 12 0 22 5 22 9 0 11 -12 10 -30 -2z"/>
<path d="M5501 1486 c-8 -10 -9 -16 -1 -21 6 -4 9 -1 8 7 -2 7 3 12 10 11 6
-2 12 2 12 7 0 14 -16 12 -29 -4z"/>
<path d="M530 1469 c0 -5 5 -7 10 -4 6 3 10 8 10 11 0 2 -4 4 -10 4 -5 0 -10
-5 -10 -11z"/>
<path d="M270 1466 c0 -2 8 -10 18 -17 15 -13 16 -12 3 4 -13 16 -21 21 -21
13z"/>
<path d="M880 1443 l-21 -28 6 25 c5 20 4 21 -4 9 -10 -16 -7 -56 5 -68 3 -3
5 1 3 9 -2 8 3 25 11 37 11 18 17 20 29 10 11 -9 15 -9 19 1 3 10 7 10 18 1 8
-7 17 -9 21 -5 3 3 0 6 -7 6 -9 0 -7 5 6 16 19 15 19 15 -1 6 -23 -10 -35 -10
-52 1 -7 4 -20 -4 -33 -20z"/>
<path d="M4919 1468 c0 -2 -3 -14 -5 -28 -4 -23 -4 -23 9 -6 14 19 14 19 25 0
10 -18 11 -18 17 -1 6 14 10 15 23 5 12 -11 16 -11 20 0 3 10 7 10 18 1 19
-15 18 -30 -1 -23 -8 4 -15 1 -15 -7 0 -7 3 -9 7 -6 3 4 11 2 18 -3 15 -12 17
19 2 38 -6 8 -6 12 1 12 6 0 16 -8 21 -17 6 -11 11 -13 11 -5 0 7 4 11 9 7 6
-3 15 5 21 17 10 21 10 21 -3 5 -13 -15 -16 -15 -27 -2 -10 12 -16 12 -34 3
-22 -12 -24 -12 -43 3 -7 6 -13 6 -17 0 -7 -10 -25 -9 -43 2 -7 5 -13 7 -14 5z"/>
<path d="M5159 1443 l-24 -28 30 25 c17 14 32 26 34 28 2 1 0 2 -6 2 -5 0 -20
-12 -34 -27z"/>
<path d="M792 1435 c13 -12 25 -20 28 -18 3 3 -3 10 -12 17 -10 7 -16 15 -13
18 3 2 -2 5 -11 5 -11 0 -9 -6 8 -22z"/>
<path d="M823 1438 c8 -13 13 -14 19 -5 12 19 9 26 -11 24 -15 -1 -17 -4 -8
-19z"/>
<path d="M1116 1447 c3 -10 9 -15 12 -12 3 3 0 11 -7 18 -10 9 -11 8 -5 -6z"/>
<path d="M1217 1453 c-8 -12 12 -22 31 -16 6 3 12 9 12 15 0 7 -5 6 -14 -1
-11 -9 -15 -9 -18 1 -3 8 -6 9 -11 1z"/>
<path d="M1290 1447 c0 -10 -4 -15 -10 -12 -5 3 -10 2 -10 -4 0 -5 9 -9 20 -8
22 1 24 5 10 27 -8 13 -10 12 -10 -3z"/>
<path d="M1315 1450 c3 -5 8 -10 11 -10 2 0 4 5 4 10 0 6 -5 10 -11 10 -5 0
-7 -4 -4 -10z"/>
<path d="M4751 1444 c0 -11 3 -14 6 -6 3 7 2 16 -1 19 -3 4 -6 -2 -5 -13z"/>
<path d="M5220 1450 c-8 -5 -10 -10 -5 -10 6 0 17 5 25 10 8 5 11 10 5 10 -5
0 -17 -5 -25 -10z"/>
<path d="M1190 1441 c0 -6 4 -13 10 -16 6 -3 7 1 4 9 -7 18 -14 21 -14 7z"/>
<path d="M4493 1438 c-19 -24 -24 -38 -15 -38 5 0 14 11 20 25 13 27 10 32 -5
13z"/>
<path d="M4790 1441 c0 -5 7 -12 16 -15 14 -5 15 -4 4 9 -14 17 -20 19 -20 6z"/>
<path d="M1341 1433 c4 -20 -2 -27 -12 -13 -9 12 -10 12 -7 1 3 -8 9 -16 15
-18 14 -5 25 25 12 32 -5 4 -9 3 -8 -2z"/>
<path d="M4674 1433 c4 -7 3 -13 -2 -13 -14 0 -23 -28 -11 -35 5 -4 8 -1 7 7
-2 7 2 12 9 11 13 -3 12 22 -2 34 -4 4 -5 2 -1 -4z"/>
<path d="M4580 1426 c0 -2 8 -10 18 -17 15 -13 16 -12 3 4 -13 16 -21 21 -21
13z"/>
<path d="M4616 1415 c4 -8 8 -15 10 -15 2 0 4 7 4 15 0 8 -4 15 -10 15 -5 0
-7 -7 -4 -15z"/>
<path d="M4933 1412 c2 -12 6 -24 10 -28 3 -4 4 4 2 16 -6 30 -16 40 -12 12z"/>
<path d="M5086 1417 c-16 -12 -16 -14 -3 -14 9 0 18 6 21 14 3 7 4 13 3 13 -2
0 -11 -6 -21 -13z"/>
<path d="M960 1416 c0 -2 7 -7 16 -10 8 -3 12 -2 9 4 -6 10 -25 14 -25 6z"/>
<path d="M1045 1410 c3 -5 8 -10 11 -10 2 0 4 5 4 10 0 6 -5 10 -11 10 -5 0
-7 -4 -4 -10z"/>
<path d="M1150 1410 c0 -4 7 -7 15 -6 23 3 26 12 5 13 -11 1 -20 -2 -20 -7z"/>
<path d="M4726 1412 c-2 -4 4 -8 14 -8 10 0 16 4 14 8 -3 4 -9 8 -14 8 -5 0
-11 -4 -14 -8z"/>
<path d="M4770 1412 c0 -5 7 -9 15 -9 8 0 12 4 9 9 -3 4 -9 8 -15 8 -5 0 -9
-4 -9 -8z"/>
<path d="M4876 1404 c-5 -14 -4 -15 9 -4 17 14 19 20 6 20 -5 0 -12 -7 -15
-16z"/>
<path d="M4970 1409 c0 -5 5 -7 10 -4 6 3 10 8 10 11 0 2 -4 4 -10 4 -5 0 -10
-5 -10 -11z"/>
<path d="M1013 1395 c0 -8 4 -12 9 -9 5 3 6 10 3 15 -9 13 -12 11 -12 -6z"/>
<path d="M910 1386 c7 -7 13 -7 20 0 6 6 3 10 -10 10 -13 0 -16 -4 -10 -10z"/>
<path d="M5140 1390 c8 -5 20 -10 25 -10 6 0 3 5 -5 10 -8 5 -19 10 -25 10 -5
0 -3 -5 5 -10z"/>
<path d="M4550 1381 c0 -5 5 -13 10 -16 6 -3 10 -2 10 4 0 5 -4 13 -10 16 -5
3 -10 2 -10 -4z"/>
<path d="M4595 1379 c-4 -6 -5 -12 -2 -15 2 -3 7 2 10 11 7 17 1 20 -8 4z"/>
<path d="M4530 1361 c0 -6 4 -13 10 -16 6 -3 7 1 4 9 -7 18 -14 21 -14 7z"/>
<path d="M4379 1343 c-13 -17 -13 -17 6 -3 11 8 22 16 24 17 2 2 0 3 -6 3 -6
0 -17 -8 -24 -17z"/>
<path d="M4456 1312 c-3 -5 1 -9 9 -9 8 0 12 4 9 9 -3 4 -7 8 -9 8 -2 0 -6 -4
-9 -8z"/>
<path d="M4380 1291 c0 -6 5 -11 11 -11 5 0 7 -4 4 -10 -3 -5 -1 -10 4 -10 16
0 13 16 -4 30 -10 9 -15 9 -15 1z"/>
<path d="M4423 1289 c9 -6 14 -15 11 -21 -4 -7 -2 -8 5 -4 14 9 -3 36 -23 36
-6 0 -3 -5 7 -11z"/>
<path d="M4351 1243 c-1 -17 16 -25 25 -12 4 7 3 9 -4 5 -5 -3 -13 0 -15 6 -4
9 -6 10 -6 1z"/>
<path d="M4313 1201 c2 -11 7 -24 12 -28 4 -5 5 -3 2 4 -4 6 -3 13 2 15 5 1 3
9 -5 16 -12 11 -13 9 -11 -7z"/>
<path d="M4330 1216 c0 -2 7 -7 16 -10 8 -3 12 -2 9 4 -6 10 -25 14 -25 6z"/>
<path d="M4240 1180 c-8 -5 -18 -6 -24 -3 -5 3 -6 1 -2 -6 4 -6 12 -8 18 -5 7
4 8 2 4 -5 -4 -6 -15 -9 -24 -7 -18 6 -44 -6 -44 -19 0 -8 22 -25 35 -25 4 0
7 7 7 15 0 17 11 20 26 5 6 -6 15 -5 24 1 13 9 12 10 -2 5 -10 -3 -20 -1 -23
4 -4 6 -1 10 4 10 6 0 11 7 11 16 0 8 5 12 10 9 6 -4 7 -11 4 -17 -4 -7 -2 -8
4 -4 7 4 12 11 12 16 0 13 -25 19 -40 10z m-36 -45 c-4 -8 -8 -15 -10 -15 -2
0 -4 7 -4 15 0 8 4 15 10 15 5 0 7 -7 4 -15z"/>
<path d="M4336 1148 c3 -5 10 -6 15 -3 13 9 11 12 -6 12 -8 0 -12 -4 -9 -9z"/>
<path d="M4267 1109 c7 -7 15 -10 18 -7 3 3 -2 9 -12 12 -14 6 -15 5 -6 -5z"/>
<path d="M4155 1069 c-4 -6 -4 -13 -1 -16 3 -4 6 -1 6 5 0 7 5 12 11 12 5 0 7
-5 3 -12 -4 -7 -3 -8 5 -4 12 8 6 26 -9 26 -5 0 -12 -5 -15 -11z"/>
<path d="M3960 970 c-13 -9 -13 -10 0 -10 9 0 11 -3 5 -8 -19 -14 -13 -28 18
-45 l32 -17 -23 19 c-16 14 -21 27 -18 45 3 14 4 26 3 26 -1 0 -9 -5 -17 -10z"/>
<path d="M3919 948 c-7 -29 -5 -36 7 -31 16 6 18 19 4 28 -5 3 -10 5 -11 3z"/>
<path d="M1866 908 c3 -5 10 -6 15 -3 13 9 11 12 -6 12 -8 0 -12 -4 -9 -9z"/>
<path d="M3876 912 c-9 -15 23 -51 43 -49 10 0 17 7 14 13 -7 18 -51 45 -57
36z m37 -25 c4 3 7 1 7 -5 0 -20 -19 -13 -30 11 -10 20 -10 20 3 5 8 -10 17
-15 20 -11z"/>
<path d="M3936 895 c4 -8 8 -15 10 -15 2 0 4 7 4 15 0 8 -4 15 -10 15 -5 0 -7
-7 -4 -15z"/>
<path d="M3970 869 c0 -5 5 -7 10 -4 6 3 10 8 10 11 0 2 -4 4 -10 4 -5 0 -10
-5 -10 -11z"/>
<path d="M3820 816 c0 -2 7 -7 16 -10 8 -3 12 -2 9 4 -6 10 -25 14 -25 6z"/>
<path d="M2134 748 c-4 -7 -3 -10 1 -5 5 4 16 0 26 -9 14 -12 18 -13 25 -2 4
7 3 10 -1 5 -5 -4 -16 0 -26 9 -14 12 -18 13 -25 2z"/>
<path d="M3629 743 c-9 -10 -9 -14 -2 -10 7 5 21 -1 32 -12 17 -17 20 -18 26
-4 7 19 -12 34 -33 25 -10 -3 -13 -1 -8 6 11 18 0 14 -15 -5z"/>
<path d="M2196 708 c3 -5 10 -6 15 -3 13 9 11 12 -6 12 -8 0 -12 -4 -9 -9z"/>
<path d="M3695 711 c-3 -5 -2 -12 3 -15 5 -3 9 1 9 9 0 17 -3 19 -12 6z"/>
<path d="M2317 645 c-4 -8 -3 -16 1 -19 4 -3 9 4 9 15 2 23 -3 25 -10 4z"/>
<path d="M3470 645 c-7 -8 -16 -13 -20 -10 -11 7 -34 -23 -35 -46 -2 -20 31
-46 43 -35 3 3 0 6 -7 6 -7 0 -9 4 -6 10 4 6 -1 7 -12 3 -16 -6 -16 -5 -4 11
10 12 17 14 25 6 13 -13 36 -13 36 0 0 5 -8 7 -17 3 -17 -6 -17 -5 -2 13 9 10
16 27 16 37 0 21 -1 21 -17 2z m1 -23 c-5 -10 -19 -18 -31 -19 -18 -2 -19 1
-10 12 7 8 16 13 20 10 5 -3 11 -1 15 5 11 17 16 11 6 -8z"/>
<path d="M3570 652 c0 -5 7 -9 15 -9 8 0 12 4 9 9 -3 4 -9 8 -15 8 -5 0 -9 -4
-9 -8z"/>
<path d="M3630 656 c0 -2 7 -7 16 -10 8 -3 12 -2 9 4 -6 10 -25 14 -25 6z"/>
<path d="M2353 625 c0 -8 4 -12 9 -9 5 3 6 10 3 15 -9 13 -12 11 -12 -6z"/>
<path d="M3552 635 c4 -4 0 -13 -8 -20 -15 -11 -15 -12 -1 -12 20 0 30 24 14
33 -7 4 -9 4 -5 -1z"/>
<path d="M2371 597 c2 -1 13 -9 24 -17 19 -14 19 -14 6 3 -7 9 -18 17 -24 17
-6 0 -8 -1 -6 -3z"/>
<path d="M3352 578 c-7 -7 -17 -13 -22 -13 -6 0 -10 -4 -10 -8 -1 -9 54 -57
65 -57 4 0 -4 9 -19 21 -14 11 -26 25 -26 31 0 6 7 5 17 -3 9 -8 14 -9 10 -2
-4 6 -1 13 5 16 9 3 10 8 3 16 -8 8 -14 8 -23 -1z"/>
<path d="M3536 577 c3 -10 9 -15 12 -12 3 3 0 11 -7 18 -10 9 -11 8 -5 -6z"/>
<path d="M2455 550 c3 -5 8 -10 11 -10 2 0 4 5 4 10 0 6 -5 10 -11 10 -5 0 -7
-4 -4 -10z"/>
<path d="M3265 525 c-15 -14 -24 -29 -20 -34 3 -5 1 -12 -5 -16 -5 -3 -10 1
-10 9 0 8 -4 17 -9 20 -5 3 -8 -2 -7 -12 2 -25 27 -38 38 -19 5 10 16 14 26
11 13 -5 14 -4 3 4 -9 7 -10 12 -2 16 6 4 15 -2 19 -15 l9 -23 5 22 c4 14 2
20 -4 16 -6 -4 -8 1 -4 14 10 32 -11 36 -39 7z m35 8 c0 -5 -12 -16 -26 -27
-26 -18 -26 -18 -15 2 9 17 19 25 39 31 1 1 2 -2 2 -6z"/>
<path d="M3381 534 c0 -11 3 -14 6 -6 3 7 2 16 -1 19 -3 4 -6 -2 -5 -13z"/>
<path d="M3326 515 c4 -8 11 -15 16 -15 6 0 5 6 -2 15 -7 8 -14 15 -16 15 -2
0 -1 -7 2 -15z"/>
<path d="M3165 479 c-4 -5 7 -15 24 -22 17 -7 28 -17 24 -22 -5 -4 -2 -5 5 -1
15 9 6 26 -14 26 -8 0 -13 4 -10 9 3 5 -1 11 -9 15 -8 3 -17 1 -20 -5z"/>
<path d="M3150 450 c0 -5 5 -10 11 -10 5 0 7 5 4 10 -3 6 -8 10 -11 10 -2 0
-4 -4 -4 -10z"/>
<path d="M3265 450 c3 -5 8 -10 11 -10 2 0 4 5 4 10 0 6 -5 10 -11 10 -5 0 -7
-4 -4 -10z"/>
<path d="M2655 430 c-3 -5 -1 -10 4 -10 6 0 11 5 11 10 0 6 -2 10 -4 10 -3 0
-8 -4 -11 -10z"/>
<path d="M3174 429 c-3 -6 -1 -16 5 -22 9 -9 10 -7 5 7 -6 15 -4 17 6 11 9 -5
11 -4 6 3 -9 15 -13 15 -22 1z"/>
<path d="M3142 410 c7 -11 16 -20 20 -20 5 0 3 9 -4 20 -7 11 -16 20 -20 20
-5 0 -3 -9 4 -20z"/>
<path d="M3230 413 c0 -6 8 -17 18 -24 16 -13 16 -13 2 6 -8 11 -16 22 -17 24
-2 2 -3 0 -3 -6z"/>
<path d="M2816 377 c3 -10 9 -15 12 -12 3 3 0 11 -7 18 -10 9 -11 8 -5 -6z"/>
<path d="M3030 368 c0 -11 12 -10 30 2 12 7 10 9 -8 7 -12 0 -22 -5 -22 -9z"/>
<path d="M3070 360 c-9 -6 -10 -10 -3 -10 6 0 15 5 18 10 8 12 4 12 -15 0z"/>
<path d="M2879 358 c-6 -21 -5 -37 2 -32 5 3 7 9 4 14 -3 4 1 11 7 13 10 4 10
6 1 6 -7 1 -13 0 -14 -1z"/>
<path d="M2900 336 c0 -2 8 -10 18 -17 15 -13 16 -12 3 4 -13 16 -21 21 -21
13z"/>
<path d="M2996 323 c-6 -14 -5 -15 5 -6 7 7 10 15 7 18 -3 3 -9 -2 -12 -12z"/>
<path d="M3066 332 c-3 -5 1 -9 9 -9 8 0 12 4 9 9 -3 4 -7 8 -9 8 -2 0 -6 -4
-9 -8z"/>
</g>
</svg>
